<svg fill="#054108" xmlns="http://www.w3.org/2000/svg" xmlns:xlink="http://www.w3.org/1999/xlink" version="1.1" x="0px" y="0px" viewBox="0 0 100 100" style="enable-background:new 0 0 100 100;" xml:space="preserve"><style type="text/css">
	.st0{fill:#054108;}
</style><g><path class="st0" d="M23.8,79.1h52.4c0.8,0,1.5-0.7,1.5-1.5V45c0-0.1,0-0.2,0-0.3c0,0,0-0.1,0-0.1   c0-0.1,0-0.1-0.1-0.2c0,0,0-0.1-0.1-0.1c0-0.1-0.1-0.1-0.1-0.2c0,0-0.1-0.1-0.1-0.1c0,0-0.1-0.1-0.1-0.1c0,0,0,0,0,0l-6.7-5.8V27   c0-0.8-0.7-1.5-1.5-1.5H55.8l-5-4.3c-0.6-0.5-1.4-0.5-2,0l-4.9,4.3H30.2c-0.8,0-1.5,0.7-1.5,1.5v11.7l-5.9,5.2c0,0,0,0,0,0   c0,0-0.1,0.1-0.1,0.1c0,0-0.1,0.1-0.1,0.1c0,0.1-0.1,0.1-0.1,0.2c0,0,0,0.1,0,0.1c0,0.1-0.1,0.1-0.1,0.2c0,0,0,0,0,0.1   c0,0.1,0,0.2,0,0.3v32.6C22.3,78.5,23,79.1,23.8,79.1z M25.3,76.1V48.3l3.9,3.4l19.5,17.1c0.3,0.2,0.6,0.4,1,0.4   c0.3,0,0.7-0.1,1-0.4l19.2-16.5l4.8-4.1v27.8H25.3z M73.9,45l-3.4,3v-5.9L73.9,45z M49.8,24.3l1.4,1.2h-2.7L49.8,24.3z M31.7,28.5   h12.7h10.8h12.2v10.3v11.7L49.8,65.7L31.7,50V39.4V28.5z M28.7,42.7v4.6L26.1,45L28.7,42.7z"></path><path class="st0" d="M41.7,49.3c3.3,0,6.1-2.4,6.8-5.5h2.7v4c0,0.8,0.7,1.5,1.5,1.5s1.5-0.7,1.5-1.5v-4h2.5v4   c0,0.8,0.7,1.5,1.5,1.5s1.5-0.7,1.5-1.5v-5.5c0-0.8-0.7-1.5-1.5-1.5h-9.7c-0.7-3.1-3.5-5.5-6.8-5.5c-3.9,0-7,3.1-7,7   S37.8,49.3,41.7,49.3z M41.7,38.3c2.2,0,4,1.8,4,4s-1.8,4-4,4s-4-1.8-4-4S39.5,38.3,41.7,38.3z"></path></g></svg>